<?xml version="1.0" encoding="utf-8"?>
<svg id="master-artboard" viewBox="0 0 200 200" version="1.1" xmlns="http://www.w3.org/2000/svg" x="0px" y="0px" style="enable-background:new 0 0 1400 980;" width="200px" height="200px"><defs><path id="text-path-0" d="M 778.8464965820312 213.4612274169922 A 100 18 0 0 1 988.3533935546875 213.4612274169922 A 100 18 0 0 1 778.8464965820312 213.4612274169922 Z" style="fill: none; stroke: red; stroke-width: 2;"/><path id="text-path-1" d="M 664.5464477539062 37.96122741699219 A 100 19 0 0 1 876.5812377929688 37.96122741699219 A 100 19 0 0 1 664.5464477539062 37.96122741699219" style="fill: none; stroke: red; stroke-width: 2;"/><path id="text-path-2" d="M 765.3650512695312 211.70851135253906 A 100 17 0 0 1 991.5017700195312 211.70851135253906 A 100 17 0 0 1 765.3650512695312 211.70851135253906" style="fill: none; stroke: red; stroke-width: 2;"/><path id="path-1" d="M 765.3650512695312 211.70851135253906 A 100 17 0 0 1 991.5017700195312 211.70851135253906 A 100 17 0 0 1 765.3650512695312 211.70851135253906" style="fill: none; stroke: red; stroke-width: 2;"/><style id="ee-google-fonts">@import url(https://fonts.googleapis.com/css?family=Berkshire+Swash:400);</style></defs><rect id="ee-background" x="0" y="0" width="200" height="200" style="fill: white; fill-opacity: 0; pointer-events: none;"/>


<path style="fill: rgb(63, 61, 61); fill-opacity: 1; stroke: rgb(0, 0, 0); stroke-opacity: 1; stroke-width: 0; paint-order: fill;"/><path style="fill: rgb(63, 61, 61); fill-opacity: 1; stroke: rgb(0, 0, 0); stroke-opacity: 1; stroke-width: 0; paint-order: fill;"/><path style="fill: rgb(63, 61, 61); fill-opacity: 1; stroke: rgb(0, 0, 0); stroke-opacity: 1; stroke-width: 0; paint-order: fill;"/><path style="fill: rgb(63, 61, 61); fill-opacity: 1; stroke: rgb(0, 0, 0); stroke-opacity: 1; stroke-width: 0; paint-order: fill;"/><path style="fill: rgb(63, 61, 61); fill-opacity: 1; stroke: rgb(0, 0, 0); stroke-opacity: 1; stroke-width: 0; paint-order: fill;"/><path style="fill: rgb(63, 61, 61); fill-opacity: 1; stroke: rgb(0, 0, 0); stroke-opacity: 1; stroke-width: 0; paint-order: fill;"/><g transform="matrix(2.0014869633561467, 0, 0, 2.0014869633561467, -1204.9451888475965, -91.94589217840928)"><g id="g-3" transform="matrix(1, 0, 0, 1, 0, 0)">
	<g id="g-4">
		<path class="st0" d="M652,46c27.6,0,50,22.4,50,50s-22.4,50-50,50s-50-22.4-50-50S624.4,46,652,46z" style="fill: rgb(51, 51, 51); fill-opacity: 1;"/>
	</g>
</g></g><path d="M 76.76368713378906 99.11495208740234" style="fill-opacity: 0.99; stroke: rgb(0, 0, 0); stroke-opacity: 1; stroke-width: 24; paint-order: fill;"/><path d="M 97.6393814086914 94.69999694824219 C 107.37937927246094 94.69999694824219 114.81938171386719 96.43000030517578 119.95938110351562 99.88999938964844 C 125.09271240234375 103.34333038330078 127.65937805175781 108.2933349609375 127.65937805175781 114.74000549316406 C 127.65937805175781 117.88666534423828 127.29270935058594 120.58000183105469 126.55938720703125 122.81999969482422 C 125.8260498046875 125.05999755859375 124.80604553222656 126.9566650390625 123.4993896484375 128.50999450683594 C 122.19271850585938 130.07000732421875 120.63604736328125 131.36000061035156 118.82937622070312 132.3800048828125 C 117.02272033691406 133.39999389648438 115.06271362304688 134.27000427246094 112.94938659667969 134.99000549316406 C 114.41604614257812 135.38333129882812 115.89271545410156 136.43667602539062 117.37937927246094 138.14999389648438 C 118.86604309082031 139.8699951171875 120.37937927246094 141.9933319091797 121.91938781738281 144.52000427246094 C 123.45938110351562 147.04666137695312 125.01605224609375 149.84666442871094 126.58938598632812 152.9199981689453 C 128.1627197265625 156 129.7460479736328 159.11666870117188 131.33938598632812 162.27000427246094 C 132.93270874023438 165.42333984375 134.54605102539062 168.48666381835938 136.17938232421875 171.4600067138672 C 137.80604553222656 174.42666625976562 139.43270874023438 177.07333374023438 141.05938720703125 179.39999389648438 C 142.69271850585938 181.73333740234375 144.34271240234375 183.59666442871094 146.00938415527344 184.99000549316406 C 147.6693878173828 186.38333129882812 149.3227081298828 187.0800018310547 150.96937561035156 187.0800018310547 C 151.6893768310547 187.0800018310547 152.39938354492188 186.94000244140625 153.09938049316406 186.66000366210938 C 153.79270935058594 186.3733367919922 154.33604431152344 186.086669921875 154.72938537597656 185.8000030517578 L 155.859375 187.88999938964844 C 155.1460418701172 188.28334045410156 154.26937866210938 188.72332763671875 153.22938537597656 189.2100067138672 C 152.1893768310547 189.69000244140625 150.97271728515625 190.14666748046875 149.57937622070312 190.5800018310547 C 148.17938232421875 191.0066680908203 146.6127166748047 191.3733367919922 144.87937927246094 191.67999267578125 C 143.13938903808594 191.97999572753906 141.2127227783203 192.1300048828125 139.09938049316406 192.1300048828125 C 135.6260528564453 192.1300048828125 132.4927215576172 191.17333984375 129.6993865966797 189.25999450683594 C 126.90605163574219 187.34666442871094 124.50938415527344 184.65333557128906 122.50938415527344 181.17999267578125 C 120.46937561035156 177.60000610351562 118.46272277832031 173.83999633789062 116.4893798828125 169.89999389648438 C 114.52272033691406 165.9600067138672 112.56271362304688 162.02000427246094 110.60938262939453 158.0800018310547 C 108.65605163574219 154.13999938964844 106.70604705810547 150.29000854492188 104.75938415527344 146.52999877929688 C 102.80604553222656 142.77000427246094 100.84271240234375 139.2433319091797 98.869384765625 135.9499969482422 L 99.29937744140625 133.75 C 101.4127197265625 134.29000854492188 103.24938201904297 134.163330078125 104.80938720703125 133.3699951171875 C 106.369384765625 132.5833282470703 107.64938354492188 131.30332946777344 108.64938354492188 129.52999877929688 C 109.64938354492188 127.75666809082031 110.39271545410156 125.58332824707031 110.87937927246094 123.00999450683594 C 111.35938262939453 120.43000030517578 111.59938049316406 117.63666534423828 111.59938049316406 114.6300048828125 C 111.59938049316406 112.48333740234375 111.369384765625 110.47000122070312 110.90937805175781 108.58999633789062 C 110.44271850585938 106.70999908447266 109.78604888916016 105.0633316040039 108.93937683105469 103.6500015258789 C 108.09938049316406 102.2300033569336 107.08938598632812 101.11666870117188 105.90937805175781 100.30999755859375 C 104.72938537597656 99.51000213623047 103.40605163574219 99.11000061035156 101.93937683105469 99.11000061035156 C 100.79271697998047 99.11000061035156 99.85271453857422 99.27999877929688 99.119384765625 99.62000274658203 C 98.37937927246094 99.95999908447266 97.79605102539062 100.38999938964844 97.369384765625 100.91000366210938 C 96.94271850585938 101.42333221435547 96.64604949951172 101.97666931152344 96.47938537597656 102.56999969482422 C 96.31938171386719 103.163330078125 96.2393798828125 103.72666931152344 96.2393798828125 104.26000213623047 L 96.2393798828125 167.9600067138672 C 96.2393798828125 170.72000122070312 95.51605224609375 172.72666931152344 94.06938171386719 173.97999572753906 C 92.61605072021484 175.23333740234375 90.4027099609375 175.86000061035156 87.42938232421875 175.86000061035156 C 84.42271423339844 175.86000061035156 82.20271301269531 175.23333740234375 80.76937866210938 173.97999572753906 C 79.34271240234375 172.72666931152344 78.62937927246094 170.72000122070312 78.62937927246094 167.9600067138672 L 78.62937927246094 103.7300033569336 C 78.62937927246094 101.75666809082031 77.26605224609375 100.7699966430664 74.53938293457031 100.7699966430664 C 72.57271575927734 100.7699966430664 70.5760498046875 101.06666564941406 68.54937744140625 101.66000366210938 C 66.52938079833984 102.24666595458984 64.70604705810547 103.05000305175781 63.079383850097656 104.06999969482422 C 61.446048736572266 105.09666442871094 60.10938262939453 106.31666564941406 59.06938171386719 107.7300033569336 C 58.036048889160156 109.1433334350586 57.51938247680664 110.67333221435547 57.51938247680664 112.31999969482422 C 57.51938247680664 113.46666717529297 57.66938018798828 114.3800048828125 57.969383239746094 115.05999755859375 C 58.27604675292969 115.74000549316406 58.62604904174805 116.25 59.01938247680664 116.58999633789062 C 59.412715911865234 116.93000030517578 59.81604766845703 117.1433334350586 60.2293815612793 117.22999572753906 C 60.64271545410156 117.32333374023438 60.93938446044922 117.3699951171875 61.119380950927734 117.3699951171875 C 62.01271438598633 117.3699951171875 62.74604797363281 117.21666717529297 63.31938171386719 116.91000366210938 C 63.89271545410156 116.61000061035156 64.4127197265625 116.28666687011719 64.87937927246094 115.94000244140625 C 65.33938598632812 115.5999984741211 65.77604675292969 115.27999877929688 66.18938446044922 114.97999572753906 C 66.60271453857422 114.67333221435547 67.0760498046875 114.52000427246094 67.60938262939453 114.52000427246094 C 68.04271697998047 114.52000427246094 68.49938201904297 114.6199951171875 68.97938537597656 114.81999969482422 C 69.46604919433594 115.01333618164062 69.91604614257812 115.32666778564453 70.32938385009766 115.75999450683594 C 70.73605346679688 116.1866683959961 71.08271789550781 116.75 71.369384765625 117.44999694824219 C 71.65605163574219 118.1500015258789 71.79937744140625 119 71.79937744140625 120 C 71.79937744140625 121.43333435058594 71.52271270751953 122.66999816894531 70.9693832397461 123.70999908447266 C 70.41604614257812 124.74333190917969 69.69938659667969 125.61000061035156 68.81938171386719 126.30999755859375 C 67.946044921875 127.00999450683594 66.946044921875 127.52999877929688 65.81938171386719 127.8699951171875 C 64.68605041503906 128.20999145507812 63.56604766845703 128.3800048828125 62.459381103515625 128.3800048828125 C 60.7393798828125 128.3800048828125 59.18938064575195 128.0833282470703 57.809383392333984 127.49000549316406 C 56.42938232421875 126.90333557128906 55.25605010986328 126.08999633789062 54.28938293457031 125.05000305175781 C 53.322715759277344 124.00999450683594 52.58938217163086 122.7933349609375 52.08938217163086 121.4000015258789 C 51.58938217163086 120 51.33938217163086 118.51333618164062 51.33938217163086 116.94000244140625 C 51.33938217163086 113.96666717529297 51.89604949951172 111.34333801269531 53.00938034057617 109.06999969482422 C 54.116050720214844 106.79666900634766 55.67938232421875 104.836669921875 57.69938278198242 103.19000244140625 C 59.72604751586914 101.5433349609375 62.15271759033203 100.17333221435547 64.97938537597656 99.08000183105469 C 67.81271362304688 97.98666381835938 70.946044921875 97.11666870117188 74.37937927246094 96.47000122070312 C 77.81938171386719 95.83000183105469 81.49938201904297 95.37333679199219 85.41938781738281 95.0999984741211 C 89.33938598632812 94.83333587646484 93.4127197265625 94.69999694824219 97.6393814086914 94.69999694824219 Z" transform="matrix(1, 0, 0, 1, -29.801475524902344, -59.09426498413086)" style="fill: rgb(133, 133, 133); white-space: pre; color: rgb(51, 51, 51); fill-opacity: 1;"/><path d="M 169.375 132.32000732421875 C 168.4083251953125 132.32000732421875 167.2816619873047 132.51666259765625 165.9949951171875 132.91000366210938 C 164.70166015625 133.3033447265625 163.38499450683594 134.04666137695312 162.0449981689453 135.13999938964844 C 160.69833374023438 136.23333740234375 159.3816680908203 137.76333618164062 158.09500122070312 139.73001098632812 C 156.80833435058594 141.70333862304688 155.65499877929688 144.2566680908203 154.63499450683594 147.38999938964844 C 153.61500549316406 150.52333068847656 152.7916717529297 154.32666015625 152.16500854492188 158.8000030517578 C 151.538330078125 163.27333068847656 151.22500610351562 168.55667114257812 151.22500610351562 174.64999389648438 C 151.22500610351562 180.4499969482422 151.538330078125 185.47999572753906 152.16500854492188 189.74000549316406 C 152.7916717529297 194 153.6316680908203 197.6233367919922 154.68499755859375 200.61000061035156 C 155.7383270263672 203.60333251953125 156.94833374023438 206.0500030517578 158.31500244140625 207.9499969482422 C 159.6750030517578 209.8433380126953 161.10499572753906 211.32000732421875 162.60499572753906 212.3800048828125 C 164.11166381835938 213.43333435058594 165.61500549316406 214.1566619873047 167.11500549316406 214.5500030517578 C 168.62167358398438 214.94332885742188 170.038330078125 215.13999938964844 171.36500549316406 215.13999938964844 C 172.75833129882812 215.13999938964844 174.17166137695312 214.9633331298828 175.60499572753906 214.61000061035156 C 177.038330078125 214.25 178.44500732421875 213.72999572753906 179.8249969482422 213.0500030517578 C 181.19833374023438 212.3699951171875 182.52166748046875 211.54666137695312 183.7949981689453 210.5800018310547 C 185.06832885742188 209.6133270263672 186.24166870117188 208.50332641601562 187.31500244140625 207.25 L 189.73500061035156 209.6699981689453 C 188.6616668701172 210.99000549316406 187.37167358398438 212.33999633789062 185.86500549316406 213.72000122070312 C 184.35833740234375 215.10000610351562 182.61166381835938 216.35333251953125 180.625 217.47999572753906 C 178.63833618164062 218.60665893554688 176.4116668701172 219.52999877929688 173.94500732421875 220.25 C 171.47166442871094 220.9633331298828 168.73165893554688 221.32000732421875 165.72500610351562 221.32000732421875 C 161.0316619873047 221.32000732421875 156.67166137695312 220.42333984375 152.64500427246094 218.6300048828125 C 148.6183319091797 216.8433380126953 145.10833740234375 214.05999755859375 142.11500549316406 210.27999877929688 C 139.12832641601562 206.5066680908203 136.78500366210938 201.663330078125 135.0850067138672 195.75 C 133.37832641601562 189.8433380126953 132.52499389648438 182.77333068847656 132.52499389648438 174.54000854492188 C 132.52499389648438 166.80667114257812 133.42166137695312 160.02000427246094 135.21499633789062 154.17999267578125 C 137.00833129882812 148.34666442871094 139.44166564941406 143.47000122070312 142.51499938964844 139.5500030517578 C 145.59500122070312 135.6233367919922 149.211669921875 132.66665649414062 153.36500549316406 130.67999267578125 C 157.51834106445312 128.69332885742188 161.94166564941406 127.69999694824219 166.63499450683594 127.69999694824219 C 169.7483367919922 127.69999694824219 172.58499145507812 127.99666595458984 175.14500427246094 128.58999633789062 C 177.7050018310547 129.17666625976562 179.9183349609375 130.0366668701172 181.78500366210938 131.1699981689453 C 183.64500427246094 132.29666137695312 185.08499145507812 133.69332885742188 186.10499572753906 135.36000061035156 C 187.125 137.01998901367188 187.63499450683594 138.90667724609375 187.63499450683594 141.01998901367188 C 187.63499450683594 141.98666381835938 187.47500610351562 143 187.15499877929688 144.05999755859375 C 186.82833862304688 145.11334228515625 186.33499145507812 146.0800018310547 185.6750030517578 146.95999145507812 C 185.01499938964844 147.8333282470703 184.20166015625 148.5500030517578 183.23500061035156 149.11000061035156 C 182.26834106445312 149.663330078125 181.13833618164062 149.94000244140625 179.84500122070312 149.94000244140625 C 178.69833374023438 149.94000244140625 177.81167602539062 149.69000244140625 177.18499755859375 149.19000244140625 C 176.56500244140625 148.68333435058594 176.10166931152344 148.02000427246094 175.7949981689453 147.1999969482422 C 175.48834228515625 146.3733367919922 175.2916717529297 145.43333435058594 175.2050018310547 144.3800048828125 C 175.11166381835938 143.32000732421875 175.04833984375 142.23666381835938 175.01499938964844 141.1300048828125 C 174.98165893554688 140.01666259765625 174.90167236328125 138.93333435058594 174.77499389648438 137.8800048828125 C 174.64833068847656 136.82666015625 174.39833068847656 135.88665771484375 174.02499389648438 135.05999755859375 C 173.64500427246094 134.239990234375 173.09832763671875 133.57666015625 172.38499450683594 133.07000732421875 C 171.66500854492188 132.57000732421875 170.6616668701172 132.32000732421875 169.375 132.32000732421875 Z" transform="matrix(1, 0, 0, 1, -25.424304962158203, -57.33992004394531)" style="fill: rgb(193, 193, 193); white-space: pre; color: rgb(78, 57, 171);"/><path d="M 59.99446487426758 88.29610443115234" style="fill: rgb(51, 51, 51); fill-opacity: 1; stroke: rgb(0, 0, 0); stroke-opacity: 1; stroke-width: 0; paint-order: fill;" transform="matrix(1, 0, 0, 1, -7.0322543659671055, -13.52356608839824)"/><path d="M 48.093727111816406 72.06782531738281 L 51.33938217163086 69.36310577392578" style="fill: rgb(51, 51, 51); fill-opacity: 1; stroke: rgb(0, 0, 0); stroke-opacity: 1; stroke-width: 0; paint-order: fill;"/><path d="M 49.716552734375 87.21421813964844" style="fill: rgb(51, 51, 51); fill-opacity: 1; stroke: rgb(0, 0, 0); stroke-opacity: 1; stroke-width: 0; paint-order: fill;"/><path d="M 43.225242614746094 136.98094177246094" style="fill: rgb(51, 51, 51); fill-opacity: 1; stroke: rgb(0, 0, 0); stroke-opacity: 1; stroke-width: 0; paint-order: fill;"/></svg>